<?xml version="1.0" encoding="utf-8"?>
<!-- Generator: Adobe Illustrator 26.5.0, SVG Export Plug-In . SVG Version: 6.00 Build 0)  -->
<svg version="1.1" id="Layer_1" xmlns="http://www.w3.org/2000/svg" xmlns:xlink="http://www.w3.org/1999/xlink" x="0px" y="0px"
	 viewBox="0 0 291.2 55.8" style="enable-background:new 0 0 291.2 55.8;" xml:space="preserve">
<style type="text/css">
	.st0{fill:#3866B0;}
	.st1{fill:#E2DDDB;}
</style>
<polygon class="st0" points="5,39 5,25.1 31.7,40.6 36.7,37.7 7.2,20.7 0,24.8 0,41.8 24.2,55.8 48.3,41.8 48.3,36.1 24.2,50 "/>
<polygon class="st0" points="24.2,0 0,13.9 0,19.7 24.2,5.7 43.3,16.8 43.3,30.7 16.6,15.2 11.7,18.1 41.1,35.1 48.3,31 48.3,13.9 
	"/>
<path class="st1" d="M78.8,25.1c-3.5-0.9-4.7-1.6-4.7-2.9c0-0.9,0.9-1.7,2.2-1.7c1.2,0,2.3,0.5,2.3,1.9h7.4
	c-0.4-4.9-4.2-7.9-9.6-7.9c-5.1,0-9.7,3.2-9.7,8.2c0,2.9,1.7,5.4,8,7.4c3.8,1.2,4.6,1.9,4.6,3.3c0,1.2-1.3,1.9-2.6,1.9
	c-1.4,0.2-2.7-0.9-2.8-2.3c0,0,0,0,0,0h-7.5c0.5,5.1,4.6,8.3,10.2,8.3c5.7,0,10.2-3.3,10.2-8.5C86.7,29.1,84.8,26.7,78.8,25.1z"/>
<path class="st1" d="M104.1,14.5c-3,0-5.4,1.2-6.5,3.3V7h-7.5v33.5h7.5V26.3c0-3.1,1.4-4.8,4.2-4.8c2.8,0,4,1.9,4,5.1v13.8h7.5V24.6
	C113.3,18.1,109.8,14.5,104.1,14.5z"/>
<path class="st1" d="M153.4,7h-7.5v8.4h-6.5c0-1.7,0.5-2.7,2.8-2.7h0.5V7h-0.9c-7.1,0-9.8,2.6-9.8,7.8v0.6h-2.8V21h2.8v19.4h7.5V21
	h6.5v19.4h7.5V21h3.6v-5.7h-3.6V7z"/>
<path class="st1" d="M177.8,34.2c-3.5,0-6-2.7-6-6.4c0-3.5,2.4-6.4,5.8-6.4c2.4-0.1,4.7,1.3,5.6,3.5h7.6c-1.7-7.1-8.8-11.5-15.9-9.8
	c-7.1,1.7-11.5,8.8-9.8,15.9c1.7,7.1,8.8,11.5,15.9,9.8c4.9-1.2,8.8-5.1,9.9-10h-7.6C182.3,33,180.1,34.3,177.8,34.2z"/>
<polygon class="st1" points="203.8,29.9 203.7,29.9 198.6,15.3 190.6,15.3 200,39.2 196,48.8 203.9,48.8 216.5,15.3 208.6,15.3 "/>
<path class="st1" d="M233.3,14.5c-2.7-0.1-5.3,0.9-7.1,2.8V7h-7.5v33.5h7.2v-2.7h0.1c1.1,2.1,4.2,3.5,7.2,3.5
	c7.7,0,12.7-5.8,12.7-13.6C245.8,19.3,239.8,14.5,233.3,14.5z M232,34.3c-3.4,0-6.1-2.8-6.1-6.2c0-0.1,0-0.2,0-0.3
	c0.1-3.4,3-6.1,6.5-5.9c3.4,0.1,6.1,3,5.9,6.5C238.1,31.7,235.3,34.3,232,34.3z"/>
<path class="st1" d="M261.1,14.5c-7.4,0.1-13.3,6.2-13.2,13.6c0.1,7.3,6,13.1,13.3,13.2c5.3,0,9.9-3.2,12.3-8.7h-7.7
	c-1,1.5-2.7,2.4-4.6,2.4c-2.9,0.2-5.4-1.9-5.9-4.7h18.8c0.1-0.7,0.2-1.3,0.2-2C274.3,20.4,268.6,14.5,261.1,14.5z M255.4,25.1
	c0.9-3.1,4.2-5,7.3-4.1c2,0.6,3.5,2.1,4.1,4.1H255.4z"/>
<path class="st1" d="M284.9,18L284.9,18l-0.1-2.7h-7.1v25.1h7.5V26.6c0-2.8,1.4-4.5,5.9-4.6v-7.6C288.3,14.5,286.2,15.3,284.9,18z"
	/>
<rect x="119.6" y="7" class="st1" width="7.5" height="5.7"/>
<polygon class="st1" points="119.7,29.8 116.1,33.2 116.1,40.4 123.6,40.4 123.6,26 127.2,22.6 127.2,15.3 119.7,15.3 "/>
</svg>
