<svg id="Layer_1" data-name="Layer 1" xmlns="http://www.w3.org/2000/svg" viewBox="0 0 291.1647 55.78534"><defs><style>.cls-1{fill:#fff;}</style></defs><polygon class="cls-1" points="4.974 38.967 4.974 25.133 31.683 40.553 36.657 37.681 7.201 20.675 0 24.832 0 41.839 24.156 55.785 48.312 41.839 48.312 36.095 24.156 50.042 4.974 38.967"/><polygon class="cls-1" points="24.156 0 0 13.947 0 19.69 24.156 5.744 43.337 16.818 43.337 30.653 16.628 15.232 11.654 18.103 41.11 35.11 48.312 30.953 48.312 13.946 24.156 0"/><path class="cls-1" d="M231.16467,418.565c-3.483-.90459-4.704-1.58274-4.704-2.94013,0-.94989.90452-1.67335,2.17087-1.67335,1.22156,0,2.26141.45172,2.30671,1.89972h7.37306c-.36169-4.93046-4.20648-7.9159-9.63447-7.9159-5.06635,0-9.72513,3.21188-9.72513,8.18655,0,2.94014,1.67385,5.42855,8.00649,7.37357,3.75419,1.17632,4.61348,1.89978,4.61348,3.30133,0,1.17632-1.31158,1.945-2.62374,1.945a2.59,2.59,0,0,1-2.84961-2.30614h-7.463c.54283,5.11051,4.56818,8.32238,10.22267,8.32238,5.69914,0,10.22209-3.30133,10.22209-8.54881C239.08005,422.54558,237.135,420.1477,231.16467,418.565Z" transform="translate(-152.36359 -393.4767)"/><path class="cls-1" d="M256.462,407.93529c-2.98493,0-5.42747,1.22156-6.5132,3.25717V400.4269h-7.509v33.4718h7.509V419.78651c0-3.12127,1.35682-4.79462,4.20643-4.79462,2.75907,0,4.02593,1.85448,4.02593,5.11051v13.7963h7.50832V418.11209C265.68953,411.55359,262.2065,407.93529,256.462,407.93529Z" transform="translate(-152.36359 -393.4767)"/><path class="cls-1" d="M305.784,400.4269h-7.50832v8.36768H291.8072c0-1.67328.54283-2.71377,2.75957-2.71377h.4523V400.4269h-.94989c-7.0566,0-9.77037,2.62318-9.77037,7.78013v.58755H281.4945v5.69921h2.80431V433.8987h7.50839V414.49379h6.46847V433.8987H305.784V414.49379h3.61887v-5.69921H305.784Z" transform="translate(-152.36359 -393.4767)"/><path class="cls-1" d="M330.17114,427.70133c-3.483,0-5.97088-2.71371-5.97088-6.37737,0-3.52776,2.352-6.3773,5.78974-6.3773a5.77549,5.77549,0,0,1,5.60918,3.52776h7.59893a13.2051,13.2051,0,1,0,.0453,5.88028h-7.64423A5.72935,5.72935,0,0,1,330.17114,427.70133Z" transform="translate(-152.36359 -393.4767)"/><polygon class="cls-1" points="203.758 29.883 203.667 29.883 198.646 15.318 190.64 15.318 199.958 39.155 195.978 48.79 203.938 48.79 216.513 15.318 208.552 15.318 203.758 29.883"/><path class="cls-1" d="M385.64776,407.93529a9.34134,9.34134,0,0,0-7.14663,2.84961v-10.358h-7.5089v33.4718h7.19193v-2.66847h.09054c1.131,2.12615,4.16176,3.52776,7.19192,3.52776,7.73483,0,12.66528-5.835,12.66528-13.56986C398.1319,412.82045,392.16153,407.93529,385.64776,407.93529Zm-1.31159,19.81133a6.14316,6.14316,0,0,1-6.10677-6.4679,6.2019,6.2019,0,1,1,6.10677,6.4679Z" transform="translate(-152.36359 -393.4767)"/><path class="cls-1" d="M413.45288,407.93529a13.38981,13.38981,0,0,0,.13583,26.7774c5.29221,0,9.8604-3.21187,12.25771-8.68465H418.157a5.27628,5.27628,0,0,1-4.56825,2.35259,5.61819,5.61819,0,0,1-5.88028-4.74932h18.81672a9.58447,9.58447,0,0,0,.18056-1.99032C426.70571,413.86093,420.96126,407.93529,413.45288,407.93529ZM407.799,418.565a5.9277,5.9277,0,0,1,11.39841,0Z" transform="translate(-152.36359 -393.4767)"/><path class="cls-1" d="M437.241,411.46305h-.09054v-2.66847h-7.05666V433.8987h7.5089V420.0571c0-2.84954,1.44748-4.52288,5.92564-4.56818v-7.55363C440.63339,407.93529,438.55255,408.79458,437.241,411.46305Z" transform="translate(-152.36359 -393.4767)"/><rect class="cls-1" x="119.55222" y="6.99347" width="7.49339" height="5.68739"/><polygon class="cls-1" points="119.663 29.79 116.118 33.183 116.118 40.422 123.627 40.422 123.627 25.995 127.171 22.602 127.171 15.318 119.663 15.318 119.663 29.79"/></svg>