<svg id="Layer_1" data-name="Layer 1" xmlns="http://www.w3.org/2000/svg" viewBox="0 0 172.58681 59.90314"><defs><style>.cls-1{fill:#fff;}</style></defs><polygon class="cls-1" points="5.341 41.843 5.341 26.988 34.022 43.547 39.363 40.463 7.732 22.201 0 26.665 0 44.927 25.939 59.903 51.878 44.927 51.878 38.759 25.939 53.736 5.341 41.843"/><polygon class="cls-1" points="25.939 0 0 14.976 0 21.143 25.939 6.168 46.536 18.059 46.536 32.915 17.856 16.356 12.514 19.44 44.145 37.702 51.878 33.237 51.878 14.976 25.939 0"/><path class="cls-1" d="M296.66,418.23012c-3.89888-1.01259-5.26565-1.77171-5.26565-3.29117,0-1.0633,1.01252-1.87313,2.43007-1.87313,1.3674,0,2.53141.50565,2.58212,2.12653h8.25336c-.40488-5.51912-4.70872-8.861-10.78477-8.861-5.67125,0-10.88626,3.59535-10.88626,9.164,0,3.29118,1.8737,6.0767,8.96242,8.25393,4.20242,1.31677,5.1643,2.1266,5.1643,3.69549,0,1.31677-1.46818,2.17724-2.937,2.17724a2.89927,2.89927,0,0,1-3.18983-2.58148h-8.35406c.60764,5.72067,5.11359,9.316,11.44319,9.316,6.37958,0,11.44255-3.69549,11.44255-9.56949C305.52043,422.686,303.34319,420.00184,296.66,418.23012Z" transform="translate(-211.65254 -391.4178)"/><path class="cls-1" d="M324.97773,406.33135c-3.34131,0-6.07548,1.3674-7.29083,3.64605V397.9265h-8.40549v37.46813h8.40549v-15.7971c0-3.49393,1.51881-5.36707,4.70864-5.36707,3.08849,0,4.5066,2.0759,4.5066,5.72067v15.4435h8.40477V417.72319C335.30691,410.38165,331.408,406.33135,324.97773,406.33135Z" transform="translate(-211.65254 -391.4178)"/><path class="cls-1" d="M380.18841,397.9265h-8.40477v9.36673h-7.24077c0-1.87306.60764-3.03778,3.089-3.03778h.5063v-6.329h-1.0633c-7.89912,0-10.93689,2.93636-10.93689,8.709v.65771H352.9989v6.37966H356.138v21.72174h8.40484V413.67289h7.24077v21.72174h8.40477V413.67289h4.05094v-6.37966h-4.05094Z" transform="translate(-211.65254 -391.4178)"/><rect class="cls-1" x="130.62403" y="6.55714" width="8.38806" height="6.36643"/><polygon class="cls-1" points="130.747 32.076 126.78 35.874 126.78 43.977 135.185 43.977 135.185 27.827 139.153 24.029 139.153 15.875 130.747 15.875 130.747 32.076"/></svg>